<?xml version="1.0" encoding="UTF-8"?>
<svg xmlns="http://www.w3.org/2000/svg" version="1.1" width="100" height="100" viewBox="0 0 100 100"><rect x="0" y="0" width="100" height="100" fill="#fefefe"/><g transform="scale(3.448)"><g transform="translate(4.000,4.000)"><path fill-rule="evenodd" d="M9 0L9 1L8 1L8 2L9 2L9 3L8 3L8 4L10 4L10 5L8 5L8 7L9 7L9 6L10 6L10 8L6 8L6 9L8 9L8 12L4 12L4 11L3 11L3 10L2 10L2 9L5 9L5 8L0 8L0 10L1 10L1 11L2 11L2 13L3 13L3 12L4 12L4 13L8 13L8 15L9 15L9 16L8 16L8 21L9 21L9 19L10 19L10 18L11 18L11 20L10 20L10 21L11 21L11 20L12 20L12 21L13 21L13 20L14 20L14 21L17 21L17 20L19 20L19 21L20 21L20 20L19 20L19 18L20 18L20 17L18 17L18 16L19 16L19 15L20 15L20 14L21 14L21 13L20 13L20 12L19 12L19 11L20 11L20 10L21 10L21 9L20 9L20 8L19 8L19 9L18 9L18 8L17 8L17 9L16 9L16 8L15 8L15 11L16 11L16 12L17 12L17 13L15 13L15 12L14 12L14 11L13 11L13 10L11 10L11 11L12 11L12 12L11 12L11 13L15 13L15 14L17 14L17 15L15 15L15 16L14 16L14 14L10 14L10 12L9 12L9 11L10 11L10 10L9 10L9 9L10 9L10 8L11 8L11 9L14 9L14 8L13 8L13 5L12 5L12 7L11 7L11 4L10 4L10 2L9 2L9 1L10 1L10 0ZM11 0L11 1L12 1L12 4L13 4L13 1L12 1L12 0ZM19 9L19 10L20 10L20 9ZM6 10L6 11L7 11L7 10ZM16 10L16 11L17 11L17 10ZM18 12L18 13L17 13L17 14L18 14L18 15L19 15L19 14L18 14L18 13L19 13L19 12ZM9 14L9 15L10 15L10 14ZM12 15L12 17L11 17L11 16L10 16L10 17L9 17L9 18L10 18L10 17L11 17L11 18L13 18L13 19L12 19L12 20L13 20L13 19L14 19L14 20L17 20L17 19L18 19L18 18L15 18L15 17L16 17L16 16L15 16L15 17L13 17L13 15ZM14 18L14 19L15 19L15 18ZM0 0L0 7L7 7L7 0ZM1 1L1 6L6 6L6 1ZM2 2L2 5L5 5L5 2ZM21 0L14 0L14 7L21 7ZM20 1L15 1L15 6L20 6ZM19 2L16 2L16 5L19 5ZM0 21L7 21L7 14L0 14ZM1 20L6 20L6 15L1 15ZM2 19L5 19L5 16L2 16Z" fill="#000000"/></g></g></svg>
